<?xml version="1.0" encoding="UTF-8" standalone="no"?>
<!-- Created with Inkscape (http://www.inkscape.org/) -->

<svg
   xmlns:dc="http://purl.org/dc/elements/1.1/"
   xmlns:cc="http://creativecommons.org/ns#"
   xmlns:rdf="http://www.w3.org/1999/02/22-rdf-syntax-ns#"
   xmlns:svg="http://www.w3.org/2000/svg"
   xmlns="http://www.w3.org/2000/svg"
   xmlns:sodipodi="http://sodipodi.sourceforge.net/DTD/sodipodi-0.dtd"
   xmlns:inkscape="http://www.inkscape.org/namespaces/inkscape"
   version="1.1"
   id="svg3680"
   xml:space="preserve"
   width="2803.3333"
   height="2288.6667"
   viewBox="0 0 2803.3333 2288.6667"
   sodipodi:docname="beta-orange.svg"
   inkscape:version="0.92.1 r15371"><metadata
     id="metadata3686"><rdf:RDF><cc:Work
         rdf:about=""><dc:format>image/svg+xml</dc:format><dc:type
           rdf:resource="http://purl.org/dc/dcmitype/StillImage" /><dc:title></dc:title></cc:Work></rdf:RDF></metadata><defs
     id="defs3684"><clipPath
       clipPathUnits="userSpaceOnUse"
       id="clipPath3696"><path
         d="M 0,1716.5 H 2102.5 V 0 H 0 Z"
         id="path3694"
         inkscape:connector-curvature="0" /></clipPath></defs><sodipodi:namedview
     pagecolor="#ffffff"
     bordercolor="#666666"
     borderopacity="1"
     objecttolerance="10"
     gridtolerance="10"
     guidetolerance="10"
     inkscape:pageopacity="0"
     inkscape:pageshadow="2"
     inkscape:window-width="1920"
     inkscape:window-height="1001"
     id="namedview3682"
     showgrid="false"
     inkscape:zoom="0.35304397"
     inkscape:cx="903.14516"
     inkscape:cy="1144.3334"
     inkscape:window-x="-9"
     inkscape:window-y="-9"
     inkscape:window-maximized="1"
     inkscape:current-layer="g3688" /><g
     id="g3688"
     inkscape:groupmode="layer"
     inkscape:label="LogoBETA"
     transform="matrix(1.3333333,0,0,-1.3333333,0,2288.6667)"><g
       id="g3790"
       transform="matrix(1.4142136,-1.4142136,1.4142136,1.4142136,346.69151,1638.8799)"
       inkscape:export-xdpi="96"
       inkscape:export-ydpi="96"><path
         d="m 0,0 c 11.866,-11.866 11.866,-31.106 0,-42.972 l -70.726,-70.726 c -11.866,-11.866 -31.106,-11.866 -42.972,0 -11.866,11.866 -11.866,31.107 0,42.973 L -42.973,0 C -31.106,11.867 -11.867,11.867 0,0"
         style="fill:#e26f02;fill-opacity:1;fill-rule:nonzero;stroke:none"
         id="path3792"
         inkscape:connector-curvature="0"
         inkscape:export-xdpi="96"
         inkscape:export-ydpi="96" /></g><g
       id="g3794"
       transform="matrix(1.4142136,-1.4142136,1.4142136,1.4142136,100.24757,1617.1497)"
       inkscape:export-xdpi="96"
       inkscape:export-ydpi="96"><path
         d="M 0,0 2.717,2.717 C 4.16,4.16 4.979,5.574 5.171,6.958 5.365,8.34 4.894,9.6 3.759,10.735 1.521,12.972 -1.426,12.252 -5.083,8.572 L -6.828,6.828 Z m -9.947,9.948 1.861,1.863 c 1.51,1.509 2.353,2.897 2.526,4.165 0.176,1.268 -0.322,2.488 -1.493,3.658 -1.049,1.049 -2.151,1.475 -3.307,1.278 -1.156,-0.198 -2.489,-1.051 -3.999,-2.56 l -1.996,-1.997 z m 9.192,-17.781 -23.434,23.434 6.459,6.458 c 2.907,2.907 5.584,4.559 8.027,4.956 2.443,0.397 4.553,-0.292 6.325,-2.065 2.752,-2.752 3.437,-5.684 2.055,-8.797 l 0.063,-0.065 c 3.577,2.194 6.726,1.93 9.448,-0.791 2.286,-2.286 3.291,-4.789 3.013,-7.509 C 10.925,5.067 9.321,2.243 6.392,-0.687 Z"
         style="fill:#ffffff;fill-opacity:1;fill-rule:nonzero;stroke:none"
         id="path3796"
         inkscape:connector-curvature="0" /></g><g
       id="g3798"
       transform="matrix(1.4142136,-1.4142136,1.4142136,1.4142136,145.51001,1607.139)"
       inkscape:export-xdpi="96"
       inkscape:export-ydpi="96"><path
         d="m 0,0 -23.434,23.435 12.296,12.295 3.54,-3.539 -8.002,-8.001 6.056,-6.056 7.347,7.347 3.54,-3.539 -7.348,-7.347 6.76,-6.761 8.102,8.103 3.539,-3.54 z"
         style="fill:#ffffff;fill-opacity:1;fill-rule:nonzero;stroke:none"
         id="path3800"
         inkscape:connector-curvature="0" /></g><g
       id="g3802"
       transform="matrix(1.4142136,-1.4142136,1.4142136,1.4142136,187.35848,1663.4114)"
       inkscape:export-xdpi="96"
       inkscape:export-ydpi="96"><path
         d="M 0,0 -3.539,3.539 13.807,20.884 17.346,17.345 10.82,10.819 30.715,-9.075 26.421,-13.37 6.525,6.525 Z"
         style="fill:#ffffff;fill-opacity:1;fill-rule:nonzero;stroke:none"
         id="path3804"
         inkscape:connector-curvature="0" /></g><g
       id="g3806"
       transform="matrix(1.4142136,-1.4142136,1.4142136,1.4142136,251.38061,1632.0015)"
       inkscape:export-xdpi="96"
       inkscape:export-ydpi="96"><path
         d="m 0,0 6.197,6.197 -13.835,7.897 -0.21,-0.277 z m 1.872,-15.707 -16.45,30.416 6.489,6.489 30.36,-16.507 -4.881,-4.882 -6.686,3.816 -8.14,-8.14 3.805,-6.696 z"
         style="fill:#ffffff;fill-opacity:1;fill-rule:nonzero;stroke:none"
         id="path3808"
         inkscape:connector-curvature="0" /></g></g></svg>