<?xml version="1.0" encoding="UTF-8" standalone="no"?>
<svg
   xmlns:dc="http://purl.org/dc/elements/1.1/"
   xmlns:cc="http://creativecommons.org/ns#"
   xmlns:rdf="http://www.w3.org/1999/02/22-rdf-syntax-ns#"
   xmlns:svg="http://www.w3.org/2000/svg"
   xmlns="http://www.w3.org/2000/svg"
   xmlns:sodipodi="http://sodipodi.sourceforge.net/DTD/sodipodi-0.dtd"
   xmlns:inkscape="http://www.inkscape.org/declare namespaces/inkscape"
   viewBox="0 0 119.05586 92.291733"
   height="92.291733"
   width="119.05586"
   xml:space="preserve"
   id="svg2"
   version="1.1"
   inkscape:version="0.91 r13725"
   sodipodi:docname="Kadaster-1-qc3x.svg"><sodipodi:namedview
     pagecolor="#ffffff"
     bordercolor="#666666"
     borderopacity="1"
     objecttolerance="10"
     gridtolerance="10"
     guidetolerance="10"
     inkscape:pageopacity="0"
     inkscape:pageshadow="2"
     inkscape:window-width="2495"
     inkscape:window-height="1416"
     id="namedview17"
     showgrid="false"
     fit-margin-top="0"
     fit-margin-left="0"
     fit-margin-right="0"
     fit-margin-bottom="0"
     inkscape:zoom="2.5030798"
     inkscape:cx="-42.44684"
     inkscape:cy="70.008669"
     inkscape:window-x="1985"
     inkscape:window-y="24"
     inkscape:window-maximized="1"
     inkscape:current-layer="svg2" /><metadata
     id="metadata8"><rdf:RDF><cc:Work
         rdf:about=""><dc:format>image/svg+xml</dc:format><dc:type
           rdf:resource="http://purl.org/dc/dcmitype/StillImage" /><dc:title></dc:title></cc:Work></rdf:RDF></metadata><defs
     id="defs6" /><g
     id="g12"
     transform="matrix(0.13333333,0,0,-0.13333333,-59.528132,138.436)"><path
       inkscape:connector-curvature="0"
       d="m 466.051,1038.27 -6.113,-61.243 6.253,0 21.243,27.213 10.601,0 -24.082,-31.158 20.953,-31.984 -12.246,0 -18.097,28.441 -5.317,0 -2.707,-28.441 -10.078,0 9.66,96.352 9.93,0.82"
       style="fill:#007da7;fill-opacity:1;fill-rule:nonzero;stroke:none"
       id="path14" /><path
       inkscape:connector-curvature="0"
       d="m 552.066,941.371 -9.796,-0.273 -0.274,13.336 c -12.113,-11.704 -15.789,-13.883 -22.187,-13.883 -7.758,0 -14.012,5.855 -14.012,21.64 0,27.082 11.16,43.279 29.531,43.279 5.985,0 14.02,-1.23 20.414,-3.13 l -3.941,-40.555 z m -6.8,54.16 c -3.543,0.817 -7.899,1.5 -11.161,1.5 -11.839,0 -17.968,-12.246 -17.968,-33.75 0,-9.664 2.863,-13.34 6.808,-13.34 3.672,0 7.489,2.993 19.188,14.157 l 3.133,31.433"
       style="fill:#007da7;fill-opacity:1;fill-rule:nonzero;stroke:none"
       id="path16" /><path
       inkscape:connector-curvature="0"
       d="m 599.285,1005.47 c 3.403,0 6.949,-0.41 10.621,-1.23 l 3.399,33.35 9.933,0.68 -7.476,-76.485 0.261,-20.414 -9.789,-0.273 -0.281,13.336 c -12.105,-11.704 -15.777,-13.883 -22.18,-13.883 -7.761,0 -14.015,5.855 -14.015,21.64 0,27.082 11.156,43.279 29.527,43.279 z m -12.387,-55.529 c 3.684,0 7.493,2.993 19.196,14.157 l 3.136,31.433 c -3.542,0.817 -7.902,1.5 -11.16,1.5 -11.847,0 -17.968,-12.246 -17.968,-33.75 0,-9.664 2.851,-13.34 6.796,-13.34"
       style="fill:#007da7;fill-opacity:1;fill-rule:nonzero;stroke:none"
       id="path18" /><path
       inkscape:connector-curvature="0"
       d="m 679.988,941.371 -9.797,-0.273 -0.265,13.336 c -12.113,-11.704 -15.793,-13.883 -22.188,-13.883 -7.761,0 -14.015,5.855 -14.015,21.64 0,27.082 11.148,43.279 29.531,43.279 5.98,0 14.008,-1.23 20.418,-3.13 l -3.945,-40.555 z m -6.804,54.16 c -3.539,0.817 -7.891,1.5 -11.157,1.5 -11.847,0 -17.968,-12.246 -17.968,-33.75 0,-9.664 2.855,-13.34 6.804,-13.34 3.672,0 7.489,2.993 19.196,14.157 l 3.125,31.433"
       style="fill:#007da7;fill-opacity:1;fill-rule:nonzero;stroke:none"
       id="path20" /><path
       inkscape:connector-curvature="0"
       d="m 730.074,995.531 c -4.636,1.364 -8.437,2.047 -12.531,2.047 -5.98,0 -8.426,-3.547 -8.426,-7.758 0,-4.492 1.227,-7.082 7.617,-12.519 11.973,-10.074 13.875,-13.613 13.875,-20.012 0,-10.066 -7.07,-17.008 -19.179,-17.008 -6.403,0 -12.793,1.496 -18.102,4.762 l 2.856,7.891 c 5.316,-2.582 11.156,-4.082 15.785,-4.082 6.129,0 8.984,2.996 8.984,7.355 0,4.219 -1.359,6.531 -9.523,12.93 -9.399,7.347 -12.114,12.519 -12.114,20 0,8.441 5.981,16.603 18.094,16.603 5.988,0 10.34,-0.68 14.703,-2.31 l -2.039,-7.899"
       style="fill:#007da7;fill-opacity:1;fill-rule:nonzero;stroke:none"
       id="path22" /><path
       inkscape:connector-curvature="0"
       d="m 761.777,1004.24 16.059,0 -0.945,-8.025 -15.793,0 -3.399,-34.024 c -0.402,-3.402 -0.402,-6.804 -0.402,-8.847 0,-3.266 1.215,-3.946 3.801,-3.946 2.179,0 6.535,0.954 12.382,2.997 l 1.774,-7.622 c -7.074,-3.128 -12.66,-4.359 -18.234,-4.359 -6.809,0 -10.348,3.547 -10.348,10.617 0,2.449 0.141,5.176 0.551,9.66 l 3.668,35.657 -9.114,0.277 0.68,6.945 9.395,0.67 3.261,21.78 8.426,0.27 -1.762,-22.05"
       style="fill:#007da7;fill-opacity:1;fill-rule:nonzero;stroke:none"
       id="path24" /><path
       inkscape:connector-curvature="0"
       d="m 797.035,970.629 c -0.144,-1.629 -0.144,-3.129 -0.144,-4.219 0,-13.34 4.218,-17.418 11.703,-17.418 4.758,0 11.019,1.36 21.094,6.531 l 2.863,-7.757 c -10.621,-5.446 -17.965,-7.485 -26.004,-7.485 -12.652,0 -20,7.754 -20,24.77 0,24.222 10.074,40.969 27.355,40.969 11.7,0 17.153,-6.125 17.153,-16.883 0,-3.399 -0.821,-11.024 -2.184,-16.602 z m 23.672,9.254 c 0.543,2.992 0.816,6.672 0.816,8.305 0,6.671 -2.992,9.796 -8.843,9.796 -7.895,0 -12.797,-7.211 -14.696,-19.601 l 22.723,1.5"
       style="fill:#007da7;fill-opacity:1;fill-rule:nonzero;stroke:none"
       id="path26" /><path
       inkscape:connector-curvature="0"
       d="m 856.367,941.098 -10.207,0 6.262,63.282 8.84,0 -1.211,-16.056 c 10.34,15.246 12.105,17.006 17.547,17.006 2.863,0 5.039,-0.4 7.082,-0.95 l -1.645,-9.114 c -1.89,0.132 -3.387,0.265 -5.039,0.265 -3.808,0 -5.437,-2.035 -18.492,-19.867 l -3.137,-34.566"
       style="fill:#007da7;fill-opacity:1;fill-rule:nonzero;stroke:none"
       id="path28" /><path
       inkscape:connector-curvature="0"
       d="m 959.668,607.883 123.832,418.347 -96.137,0 -170.152,-574.511 142.457,156.164"
       style="fill:#007da7;fill-opacity:1;fill-rule:nonzero;stroke:none"
       id="path30" /><path
       inkscape:connector-curvature="0"
       d="m 1102.34,764.816 -64.84,-71.086 190.35,-347.648 111.53,0 -237.04,418.734"
       style="fill:#155196;fill-opacity:1;fill-rule:nonzero;stroke:none"
       id="path32" /></g></svg>