<svg xmlns="http://www.w3.org/2000/svg" xmlns:xlink="http://www.w3.org/1999/xlink" version="1.1" x="0px" y="0px" viewBox="0 0 100 125" enable-background="new 0 0 100 100" xml:space="preserve"><path fill="#ff8d00" d="M81.3,38.3h-6.9v-6c3.6-2,6.2-5.8,6.4-10.3c0.3-6.9-5-12.8-11.9-13.1  c-5-0.2-9.5,2.5-11.7,6.7c-1.6-1.1-3.5-1.7-5.5-1.8c0,0,0,0,0,0c-1.7-0.1-3.4,0.2-5,0.9c-2.5-3-6.2-4.8-10.1-5  c-7.8-0.4-14.5,5.7-14.9,13.5c-0.2,3.8,1.1,7.4,3.7,10.2c0.3,0.3,0.6,0.6,0.9,0.9v43.9L24.5,86c-0.1,0.6,0,1.2,0.4,1.7  c0.4,0.5,1,0.8,1.6,0.8h47.7c0.6,0,1.2-0.3,1.6-0.8c0.4-0.5,0.5-1.1,0.4-1.7l-1.8-7.8v-7.8h6.9c1.1,0,2-0.9,2-2V40.3  C83.3,39.2,82.4,38.3,81.3,38.3z M60.1,30.8c2.1,1.8,4.7,2.9,7.6,3c0.2,0,0.4,0,0.6,0c0.7,0,1.4-0.1,2.1-0.2v6.6v28.2v8h-40V36.9  c1.5,0.7,3.2,1.1,4.9,1.1c0.2,0,0.4,0,0.7,0c3.7,0,7.2-1.5,9.9-4c1.5,0.8,3.1,1.3,4.9,1.4C54.5,35.7,58,33.8,60.1,30.8z M25.7,23.4  c0.3-5.5,4.8-9.7,10.2-9.7c0.2,0,0.3,0,0.5,0c3.3,0.2,6.3,1.9,8.1,4.7c0.3,0.5,0.8,0.8,1.3,0.9c0.5,0.1,1.1,0,1.5-0.3  c1.2-0.9,2.7-1.3,4.2-1.2c3.8,0.2,6.7,3.4,6.6,7.2c-0.2,3.8-3.4,6.7-7.2,6.6c-1.5-0.1-2.9-0.6-4.1-1.6c-0.4-0.3-0.9-0.5-1.5-0.5  c-0.5,0.1-1,0.3-1.4,0.7c-2,2.6-5.2,4-8.5,3.9c-2-0.1-3.8-0.7-5.4-1.9c-0.2-0.4-0.6-0.7-1-0.8c-0.2-0.2-0.4-0.4-0.6-0.6  C26.5,28.7,25.6,26.1,25.7,23.4z M29,84.5l0.9-4h40.8l0.9,4H29z M67.8,29.9c-2.4-0.1-4.5-1.2-6.1-3c0.1-0.6,0.2-1.1,0.2-1.7  c0.1-2.4-0.6-4.7-1.8-6.5c1.2-3.5,4.6-5.9,8.5-5.7c4.7,0.2,8.3,4.2,8.1,8.9C76.5,26.5,72.6,30.1,67.8,29.9z M79.3,66.5h-4.9V42.3  h4.9V66.5z"/><path fill="#ff8d00" d="M38.9,41.3c-1.1,0-2,0.9-2,2v26.6c0,1.1,0.9,2,2,2s2-0.9,2-2V43.3  C40.9,42.2,40,41.3,38.9,41.3z"/><path fill="#ff8d00" d="M62.4,71.9c1.1,0,2-0.9,2-2V43.3c0-1.1-0.9-2-2-2s-2,0.9-2,2v26.6  C60.4,71,61.3,71.9,62.4,71.9z"/><path fill="#ff8d00" d="M48.3,43.3v26.6c0,1.1,0.9,2,2,2s2-0.9,2-2V43.3c0-1.1-0.9-2-2-2S48.3,42.2,48.3,43.3z"/><text x="0" y="115" fill="#000000" font-size="5px" font-weight="bold" font-family="'Helvetica Neue', Helvetica, Arial-Unicode, Arial, Sans-serif">Created by André Luiz</text><text x="0" y="120" fill="#000000" font-size="5px" font-weight="bold" font-family="'Helvetica Neue', Helvetica, Arial-Unicode, Arial, Sans-serif">from the Noun Project</text></svg>