<?xml version="1.0" encoding="UTF-8" standalone="no"?>
<svg
   xmlns:dc="http://purl.org/dc/elements/1.1/"
   xmlns:cc="http://creativecommons.org/ns#"
   xmlns:rdf="http://www.w3.org/1999/02/22-rdf-syntax-ns#"
   xmlns:svg="http://www.w3.org/2000/svg"
   xmlns="http://www.w3.org/2000/svg"
   xmlns:sodipodi="http://sodipodi.sourceforge.net/DTD/sodipodi-0.dtd"
   version="1.1"
   x="0px"
   y="0px"
   viewBox="0 0 34.021999 65.000999"
   enable-background="new 0 0 80 80"
   xml:space="preserve"
   id="svg2"
   sodipodi:docname="sad.svg"
   width="34.021999"
   height="65.000999"><metadata
     id="metadata18"><rdf:RDF><cc:Work
         rdf:about=""><dc:format>image/svg+xml</dc:format><dc:type
           rdf:resource="http://purl.org/dc/dcmitype/StillImage" /><dc:title /></cc:Work></rdf:RDF></metadata><defs
     id="defs16" /><sodipodi:namedview
     pagecolor="#ffffff"
     borderopacity="1"
     objecttolerance="10"
     gridtolerance="10"
     guidetolerance="10"
     id="namedview14"
     showgrid="false"
     fit-margin-top="0"
     fit-margin-left="0"
     fit-margin-right="0"
     fit-margin-bottom="0"/><path
     d="M 4.705,13.44 C 1.994,13.44 0,15.512 0,18.467 c 0,2.786 1.913,4.942 4.624,4.942 2.952,0 4.786,-2.156 4.786,-4.942 0,-2.955 -1.834,-5.027 -4.705,-5.027 z"
     id="path4"
     style="fill:#1690c6" /><path
     d="M 4.705,41.594 C 1.994,41.594 0,43.672 0,46.62 c 0,2.793 1.913,4.942 4.624,4.942 2.952,0 4.786,-2.149 4.786,-4.942 0,-2.948 -1.834,-5.026 -4.705,-5.026 z"
     id="path6"
     style="fill:#1690c6" /><path
     d="m 28.599,0 5.423,0 c -5.663,7.976 -9.973,18.104 -9.973,32.463 0,14.353 4.388,24.64 9.973,32.538 l -5.423,0 C 23.572,58.305 18.227,48.096 18.149,32.463 18.149,16.827 23.572,6.54 28.599,0 Z"
     id="path8"
     style="fill:#1690c6" /></svg>
